<svg width="128" height="128" viewBox="0 0 128 128" fill="none" xmlns="http://www.w3.org/2000/svg">
<path d="M122.619 21.066C122.618 20.1247 122.369 19.2001 121.896 18.3863C121.423 17.5725 120.743 16.8984 119.925 16.4326C119.107 15.9667 118.18 15.7256 117.239 15.7338C116.297 15.7421 115.375 15.9993 114.565 16.4794C111.442 18.3397 108.08 19.7644 104.571 20.714C99.5625 16.4168 93.175 14.0656 86.576 14.09C79.3372 14.0987 72.3851 16.9201 67.1876 21.9584C61.99 26.9967 58.9538 33.8577 58.72 41.0927C44.4469 38.8171 31.5108 31.3675 22.3787 20.1647C21.8284 19.4979 21.126 18.973 20.3306 18.6342C19.5352 18.2955 18.6701 18.1527 17.808 18.218C16.9461 18.2894 16.1146 18.5694 15.3851 19.034C14.6557 19.4986 14.0503 20.1338 13.6213 20.8847C11.4214 24.7242 10.1581 29.0283 9.93381 33.4477C9.70956 37.867 10.5307 42.2769 12.3307 46.3194L12.32 46.3247C11.5092 46.8229 10.8401 47.5211 10.3769 48.3523C9.91368 49.1835 9.67186 50.1198 9.67465 51.0714C9.6661 51.8543 9.71422 52.6368 9.81865 53.4127C10.3633 60.1223 13.3367 66.4028 18.1813 71.0767C17.8526 71.7034 17.6521 72.3894 17.5917 73.0946C17.5312 73.7997 17.612 74.5098 17.8293 75.1834C19.9412 81.7655 24.4334 87.3227 30.4266 90.7674C24.3369 93.1217 17.7616 93.9422 11.28 93.1567C10.0809 93.0076 8.86672 93.27 7.8363 93.9011C6.80587 94.5322 6.02029 95.4945 5.6082 96.6304C5.19611 97.7662 5.18195 99.0084 5.56803 100.153C5.95411 101.298 6.71755 102.278 7.73332 102.933C18.8811 110.112 31.8607 113.928 45.12 113.925C60.1559 114.094 74.8264 109.289 86.8493 100.259C98.8722 91.2276 107.574 78.4765 111.6 63.9887C113.482 57.6781 114.443 51.1287 114.453 44.5434L114.448 43.4767C117.233 40.473 119.39 36.9435 120.793 33.0952C122.196 29.247 122.817 25.1573 122.619 21.066V21.066ZM104.987 38.1967C104.105 39.2379 103.658 40.5787 103.739 41.9407C103.792 42.8207 103.787 43.706 103.787 44.5434C103.775 50.107 102.96 55.6398 101.365 60.97C98.0782 73.2987 90.7488 84.1675 80.5508 91.8358C70.3529 99.504 57.8765 103.528 45.12 103.263C40.5393 103.264 35.9746 102.725 31.52 101.658C37.2016 99.8257 42.5139 97.0017 47.2106 93.3167C48.0767 92.6358 48.7107 91.7034 49.0254 90.6476C49.3401 89.5918 49.3202 88.4645 48.9683 87.4205C48.6164 86.3765 47.9498 85.4671 47.0602 84.8173C46.1706 84.1674 45.1015 83.8091 44 83.7914C39.5665 83.722 35.3331 81.9342 32.192 78.8047C32.9884 78.6554 33.7795 78.4687 34.5653 78.2447C35.7175 77.9172 36.7258 77.2113 37.4279 76.2409C38.13 75.2705 38.485 74.092 38.4358 72.8952C38.3865 71.6984 37.9358 70.5531 37.1563 69.6437C36.3768 68.7343 35.3138 68.1137 34.1386 67.882C31.5653 67.3737 29.1438 66.2787 27.0625 64.6822C24.9813 63.0856 23.2963 61.0305 22.1387 58.6767C23.1027 58.8084 24.0729 58.8903 25.0453 58.922C26.201 58.941 27.3326 58.5915 28.2762 57.9241C29.2198 57.2566 29.9263 56.306 30.2933 55.21C30.6456 54.1048 30.6279 52.9148 30.2429 51.8205C29.8579 50.7262 29.1267 49.7873 28.16 49.146C25.813 47.5837 23.8902 45.4636 22.5638 42.9756C21.2374 40.4876 20.5489 37.7095 20.56 34.89C20.56 34.538 20.5707 34.1807 20.592 33.834C32.5465 44.9841 48.0528 51.5568 64.3786 52.394C65.203 52.4253 66.0236 52.2687 66.7785 51.9361C67.5334 51.6035 68.2028 51.1035 68.736 50.474C69.2641 49.8407 69.6382 49.0935 69.8289 48.2912C70.0195 47.4889 70.0215 46.6533 69.8346 45.85C69.5293 44.5765 69.3736 43.2717 69.3706 41.962C69.3763 37.4006 71.1908 33.0277 74.4162 29.8023C77.6416 26.5769 82.0146 24.7623 86.576 24.7567C88.9234 24.7498 91.2468 25.2296 93.3995 26.1659C95.5521 27.1023 97.4872 28.4747 99.0826 30.1967C99.6978 30.8587 100.472 31.3522 101.332 31.6304C102.192 31.9086 103.108 31.9622 103.995 31.786C106.186 31.3602 108.345 30.7864 110.459 30.0687C109.018 33.0171 107.176 35.7523 104.987 38.1967V38.1967Z" fill="#141414"/>
</svg>
