<?xml version="1.0" encoding="utf-8"?>
<!-- Generator: Adobe Illustrator 24.0.2, SVG Export Plug-In . SVG Version: 6.00 Build 0)  -->
<svg version="1.1" id="Layer_1" xmlns="http://www.w3.org/2000/svg" xmlns:xlink="http://www.w3.org/1999/xlink" x="0px" y="0px"
	 viewBox="0 0 128 128" style="enable-background:new 0 0 128 128;" xml:space="preserve">
<style type="text/css">
	.st0{clip-path:url(#SVGID_2_);}
</style>
<g>
	<defs>
		<rect id="SVGID_1_" width="128" height="128"/>
	</defs>
	<clipPath id="SVGID_2_">
		<use xlink:href="#SVGID_1_"  style="overflow:visible;"/>
	</clipPath>
	<g class="st0">
		<path d="M106.3,35v8.5H76.7V35H106.3 M42.7,35c23.2,0.3,23.6,23,11.5,29.2c14.6,5.3,15.1,34.1-13.6,34.1H13.3V35H42.7 M26,60.3
			h15.2c10.6,0,12.3-12.7-1.3-12.7H26V60.3 M26,85.8h14.1C53,85.8,52.2,73,40.3,73H26V85.8 M91.6,49.4c13,0,21,7.5,22.7,18.7
			c0.3,2.1,0.5,5,0.4,9H80.8c0.3,8.5,6,11.8,11.3,11.8c3.2,0,6.3-1.2,8.1-3.2h13.4c-1.9,5.5-8.6,12.7-21.6,12.7
			c-13,0-23.5-7.3-23.5-24C68.5,57.9,78.3,49.4,91.6,49.4 M81.1,68.8h21c-0.4-6.5-4.8-9.4-10.5-9.4C85.4,59.4,82,62.6,81.1,68.8
			 M106.3,25H76.7c-5.5,0-10,4.5-10,10v0.5C62.1,29.7,54.4,25.2,42.8,25c0,0-0.1,0-0.1,0H13.3c-5.5,0-10,4.5-10,10v63.3
			c0,5.5,4.5,10,10,10h27.3c9.1,0,16.7-2.3,22.6-6.8c1.3-1,2.5-2.1,3.6-3.3c0.6,0.7,1.2,1.3,1.8,1.8c6,5.5,14.1,8.4,23.4,8.4
			c18,0,28-10.5,31-19.5c0.7-2.1,0.7-4.3,0-6.3c1-1.5,1.6-3.4,1.6-5.3c0.1-4.6-0.1-8-0.5-10.7c-1.1-7.3-4.3-13.7-9.1-18.4
			c0.8-1.4,1.2-3,1.2-4.8V35C116.3,29.4,111.8,25,106.3,25L106.3,25z M41.5,50.3C41.5,50.3,41.5,50.3,41.5,50.3L41.5,50.3L41.5,50.3
			z"/>
	</g>
</g>
</svg>
