<svg width="212" height="110" viewBox="0 0 212 110" fill="none" xmlns="http://www.w3.org/2000/svg">
<path d="M98.1 2.41846C101.1 2.41846 103.5 2.71846 105.5 3.31846C107.5 3.91846 109 4.51846 110.2 5.21846C111.5 6.11846 112.5 7.01846 113.3 8.01846C103.2 29.1185 93.3 47.5185 83.5 63.2185C79.3 69.9185 75 76.4185 70.5 82.5185C66 88.6185 61.5 93.9185 57 98.4185C52.5 102.818 48.2 106.018 44 108.018C39.8 110.018 35.9 110.118 32.3 108.518C29.6 107.218 27.9 105.218 27.2 102.418C26.5 99.6185 26.7 96.5185 27.6 93.2185C28.5 89.9185 30 86.7185 32.1 83.5185C34.2 80.3185 36.7 77.7185 39.6 75.7185C42.5 73.7185 45.5 72.6185 48.8 72.3185C52 72.0185 55.2 73.1185 58.4 75.6185C57 75.6185 55.2 76.2185 53.1 77.5185C51 78.8185 48.8 80.5185 46.6 82.5185C44.4 84.5185 42.2 86.8185 40.1 89.3185C38 91.8185 36.3 94.1185 35 96.4185C33.7 98.7185 32.9 100.718 32.6 102.518C32.3 104.318 32.8 105.618 34.2 106.418C35.8 107.318 37.9 107.118 40.2 105.818C42.6 104.418 45.2 102.218 48 99.2185C50.8 96.2185 53.8 92.5185 56.9 88.1185C60 83.7185 63.1 79.0185 66.2 73.9185C69.3 68.8185 72.4 63.5185 75.4 58.0185C78.4 52.5185 81.2 47.1185 83.9 41.8185C86.5 36.5185 88.9 31.5185 91 26.7185C93.1 21.9185 94.8 17.7185 96.2 14.1185C94.5 16.7185 92.4 19.4185 90 22.1185C87.6 24.9185 85.1 27.7185 82.5 30.6185C79.9 33.5185 77.4 36.3185 74.9 39.0185C72.4 41.7185 70.1 44.4185 68.1 46.9185C66.1 49.4185 64.4 51.7185 63.1 53.8185C61.8 55.9185 61.1 57.8185 61 59.3185C58.8 55.1185 58 51.2185 58.7 47.6185C59.3 44.0185 60.8 40.7185 63.2 37.7185C65.6 34.6185 68.5 31.8185 72.1 29.2185C75.6 26.6185 79.1 24.1185 82.6 21.7185C86.1 19.3185 89.3 17.0185 92.2 14.8185C95.1 12.6185 97.1 10.4185 98.2 8.11846C99 4.41846 99.1 2.41846 98.1 2.41846Z" fill="#F4F4F4"/>
<path d="M126.4 59.3184C127.7 59.2184 129.2 58.3184 130.7 56.4184C132.2 54.6184 133.9 52.2184 135.6 49.2184C137.3 46.3184 139.1 43.0184 140.9 39.3184C142.7 35.6184 144.6 31.9184 146.6 28.1184C148.6 24.3184 150.6 20.7184 152.7 17.2184C154.8 13.7184 157 10.6184 159.3 8.01845C157 6.41845 154.2 6.31845 150.9 7.91845C147.6 9.51845 144 12.1184 140.3 15.8184C136.6 19.5184 132.8 24.0184 129 29.2184C125.2 34.4184 121.6 40.0184 118.4 45.8184C115.2 51.6184 112.4 57.3184 110.1 63.0184C107.8 68.7184 106.3 73.8185 105.6 78.3185C104.9 82.8185 105.1 86.5184 106.4 89.3185C107.6 92.1185 110.1 93.5184 114 93.5184C116.4 93.5184 119 92.7184 121.8 91.1184C124.6 89.5184 127.3 87.5184 130 85.1184C132.7 82.7184 135.2 80.1185 137.5 77.2185C139.8 74.3185 141.6 71.6184 143 69.0184C144.4 66.5184 145.2 64.3184 145.5 62.4184C145.8 60.6184 145.2 59.4184 143.8 59.1184H156C151.7 66.2184 147.1 72.5184 142.3 78.0184C140.2 80.3185 137.9 82.7185 135.5 84.9184C133.1 87.2185 130.6 89.2185 128 90.9184C125.4 92.7185 122.7 94.1185 120 95.2185C117.2 96.3185 114.4 96.8185 111.6 96.8185C107.1 96.8185 103.6 95.6185 101.2 93.3185C98.8 91.0184 97.3 87.9184 96.7 84.0184C96.1 80.1184 96.2 75.7184 97.1 70.6184C98 65.5184 99.4 60.3184 101.4 54.8184C103.4 49.3184 105.9 43.8184 108.8 38.4184C111.7 32.9184 114.9 27.8184 118.4 23.0184C121.9 18.2184 125.5 14.0184 129.3 10.3184C133.1 6.61845 136.9 3.91845 140.6 2.11845C144.4 0.318446 148 -0.281554 151.5 0.118446C155 0.518446 158.1 2.51845 161 5.91845C163.3 3.61845 165.6 1.91845 168 1.01845C170.4 0.118446 172.8 0.218446 175.3 1.41845C174.4 1.41845 173 2.91845 171.2 5.91845C169.4 8.91845 167.3 12.6184 164.9 17.0184C162.4 21.4184 159.7 26.2184 156.7 31.3184C153.7 36.4184 150.6 41.1184 147.3 45.3184C144 49.6184 140.6 53.0184 137 55.6184C133.5 58.7184 129.9 59.8184 126.4 59.3184Z" fill="#F4F4F4"/>
<path d="M109 47.4185C108.2 49.3185 107.5 50.7185 106.8 51.6185C106.1 52.5185 105.4 53.1185 104.8 53.4185C104.1 53.7185 103.5 53.7185 102.8 53.5185C102.1 53.3185 101.5 53.0185 100.8 52.6185C100.1 52.2185 99.5 51.8185 98.8 51.3185C98.1 50.9185 97.4 50.5185 96.7 50.3185C96 50.1185 95.3 50.1185 94.5 50.4185C93.7 50.6185 92.9 51.2185 92.1 52.2185C92.9 50.4185 93.8 49.1185 94.7 48.5185C95.6 47.9185 96.6 47.6185 97.5 47.6185C98.5 47.6185 99.4 47.8185 100.4 48.2185C101.4 48.6185 102.4 48.9185 103.4 49.2185C104.4 49.5185 105.3 49.5185 106.2 49.4185C107.3 49.1185 108.2 48.5185 109 47.4185Z" fill="#F4F4F4"/>
<path d="M68.3 1.91846L65.4 6.91846H14.4L34.6 54.0185L27 65.7185L0 3.01846L0.5 1.91846H68.3Z" fill="#F4F4F4"/>
<path d="M143.2 100.919L146.1 96.7186H197.1L176.8 49.7186L184.5 38.0186L211.6 100.619L211.1 100.919H143.2Z" fill="#F4F4F4"/>
</svg>
