<svg width="1440" height="188" viewBox="0 0 1440 188" fill="none" xmlns="http://www.w3.org/2000/svg">
<path d="M806.867 3.52837C794.842 3.52837 784.968 8.60039 780.279 17.1456C769.522 6.67082 753.084 0.330783 735.322 0C734.826 0 734.329 0 733.833 0C702.115 0 676.906 18.6893 676.409 42.6159C676.354 45.2622 676.63 47.9085 677.237 50.5547C677.182 51.106 677.182 51.6574 677.182 52.2638C675.692 52.0433 674.148 51.933 672.603 51.933C655.283 51.933 638.844 64.613 634.321 81.483C632.335 88.9256 632.666 96.8093 634.873 104.307C630.625 102.212 626.047 100.558 621.137 99.5106C616.228 98.408 611.263 97.967 606.354 98.1324C587.213 98.794 572.209 108.993 569.01 123.492C568.568 125.532 568.348 127.572 568.403 129.722C568.348 129.888 568.293 130.053 568.293 130.274C565.314 129.336 562.114 128.895 558.805 129.005C554.226 129.171 549.758 130.384 545.676 132.368L545.621 132.313C543.304 129.888 540.601 128.179 537.733 127.186C533.541 124.981 529.017 123.382 524.274 122.335C525.487 108.938 515.613 94.163 499.782 86.3345C492.831 82.8612 485.329 81.0419 478.158 81.0419C466.133 81.0419 456.259 86.114 451.571 94.6592C440.814 84.1844 424.376 77.8444 406.614 77.5136C406.117 77.5136 405.621 77.5136 405.124 77.5136C400.877 77.5136 396.74 77.8444 392.768 78.5059C389.734 72.4967 385.321 67.0939 379.75 62.7386C377.433 60.3129 374.73 58.6038 371.862 57.6114C367.67 55.4062 363.146 53.8074 358.402 52.7599C359.616 39.3632 349.742 24.5882 333.911 16.7597C326.96 13.2865 319.458 11.4672 312.287 11.4672C300.262 11.4672 290.388 16.5392 285.699 25.0844C274.943 14.6096 258.505 8.2696 240.743 7.93881C240.246 7.93881 239.75 7.93881 239.253 7.93881C239.088 7.93881 238.922 7.93881 238.702 7.93881C238.536 7.93881 238.371 7.93881 238.15 7.93881C237.654 7.93881 237.157 7.93881 236.661 7.93881C218.954 8.2696 202.516 14.6096 191.704 25.0844C187.015 16.5392 177.141 11.4672 165.116 11.4672C157.945 11.4672 150.443 13.2865 143.493 16.7597C127.661 24.5882 117.787 39.3632 119.001 52.7599C114.257 53.8074 109.734 55.4062 105.541 57.6114C102.618 58.6038 99.97 60.3129 97.6532 62.7386C92.0819 67.0939 87.6689 72.4967 84.635 78.5059C80.6634 77.8444 76.5263 77.5136 72.2788 77.5136C71.7824 77.5136 71.2859 77.5136 70.7895 77.5136C53.0826 77.8444 36.6444 84.1844 25.8327 94.6592C21.1439 86.114 11.27 81.0419 -0.755233 81.0419C-7.54012 81.0419 -14.6008 82.6407 -21.2202 85.728V187.279H222.65H254.698H811.5V3.7489C809.956 3.58351 808.411 3.52837 806.867 3.52837Z" fill="#F4F4F4"/>
<path d="M750.634 3.52837C762.659 3.52837 772.533 8.60039 777.222 17.1456C787.978 6.67082 804.416 0.330783 822.178 0C822.675 0 823.171 0 823.668 0C855.386 0 880.595 18.6893 881.091 42.6159C881.146 45.2622 880.87 47.9085 880.264 50.5547C880.319 51.106 880.319 51.6574 880.319 52.2638C881.808 52.0433 883.353 51.933 884.897 51.933C902.218 51.933 918.656 64.613 923.179 81.483C925.165 88.9256 924.834 96.8093 922.628 104.307C926.875 102.212 931.454 100.558 936.363 99.5106C941.272 98.408 946.237 97.967 951.146 98.1324C970.287 98.794 985.291 108.993 988.491 123.492C988.932 125.532 989.153 127.572 989.098 129.722C989.153 129.888 989.208 130.053 989.208 130.274C992.187 129.336 995.386 128.895 998.696 129.005C1003.27 129.171 1007.74 130.384 1011.82 132.368L1011.88 132.313C1014.2 129.888 1016.9 128.179 1019.77 127.186C1023.96 124.981 1028.48 123.382 1033.23 122.335C1032.01 108.938 1041.89 94.163 1057.72 86.3345C1064.67 82.8612 1072.17 81.0419 1079.34 81.0419C1091.37 81.0419 1101.24 86.114 1105.93 94.6592C1116.69 84.1844 1133.12 77.8444 1150.89 77.5136C1151.38 77.5136 1151.88 77.5136 1152.38 77.5136C1156.62 77.5136 1160.76 77.8444 1164.73 78.5059C1167.77 72.4967 1172.18 67.0939 1177.75 62.7386C1180.07 60.3129 1182.77 58.6038 1185.64 57.6114C1189.83 55.4062 1194.35 53.8074 1199.1 52.7599C1197.88 39.3632 1207.76 24.5882 1223.59 16.7597C1230.54 13.2865 1238.04 11.4672 1245.21 11.4672C1257.24 11.4672 1267.11 16.5392 1271.8 25.0844C1282.56 14.6096 1299 8.2696 1316.76 7.93881C1317.25 7.93881 1317.75 7.93881 1318.25 7.93881C1318.41 7.93881 1318.58 7.93881 1318.8 7.93881C1318.96 7.93881 1319.13 7.93881 1319.35 7.93881C1319.85 7.93881 1320.34 7.93881 1320.84 7.93881C1338.55 8.2696 1354.98 14.6096 1365.8 25.0844C1370.49 16.5392 1380.36 11.4672 1392.38 11.4672C1399.56 11.4672 1407.06 13.2865 1414.01 16.7597C1429.84 24.5882 1439.71 39.3632 1438.5 52.7599C1443.24 53.8074 1447.77 55.4062 1451.96 57.6114C1454.88 58.6038 1457.53 60.3129 1459.85 62.7386C1465.42 67.0939 1469.83 72.4967 1472.87 78.5059C1476.84 77.8444 1480.97 77.5136 1485.22 77.5136C1485.72 77.5136 1486.21 77.5136 1486.71 77.5136C1504.42 77.8444 1520.86 84.1844 1531.67 94.6592C1536.36 86.114 1546.23 81.0419 1558.26 81.0419C1565.04 81.0419 1572.1 82.6407 1578.72 85.728V187.279H1334.85H1302.8H746V3.7489C747.545 3.58351 749.089 3.52837 750.634 3.52837Z" fill="#F4F4F4"/>
</svg>
