<svg width="1440" height="301" viewBox="0 0 1440 301" fill="none" xmlns="http://www.w3.org/2000/svg">
<path d="M777.459 175.136C778.398 175.243 779.337 175.243 780.276 175.243C795.767 175.243 808.325 163.482 808.325 148.994C808.325 134.507 795.767 122.745 780.276 122.745C778.691 122.745 777.165 122.906 775.698 123.119C778.163 118.255 779.513 112.855 779.513 107.135C779.513 86.3386 761.497 69.4986 739.257 69.4986C724.587 69.4986 711.736 76.8762 704.694 87.8355C699.589 81.4737 691.432 77.3038 682.278 77.3038C676.703 77.3038 671.48 78.8542 667.138 81.4737C667.666 79.1215 667.901 76.6623 667.901 74.1496C667.901 53.3535 649.885 36.5135 627.645 36.5135C622.775 36.5135 618.139 37.3154 613.796 38.8123C613.796 38.4381 613.855 38.0638 613.855 37.6362C613.855 16.84 595.84 0 573.6 0C551.359 0 533.344 16.84 533.344 37.6362C533.344 39.133 533.461 40.6299 533.638 42.0734C529.119 39.1865 523.662 37.4758 517.794 37.4758C502.302 37.4758 489.744 49.2371 489.744 63.7249C489.744 65.2217 489.92 66.6652 490.155 68.1086C483.758 64.1525 476.13 61.8003 467.856 61.8003C446.144 61.8003 428.422 77.8919 427.659 98.0465C423.669 96.8169 419.444 96.1219 414.984 96.1219C405.888 96.1219 397.438 98.9553 390.69 103.767C387.521 92.4866 376.606 84.2002 363.579 84.2002C355.422 84.2002 348.087 87.5148 342.923 92.7004C342.982 92.2193 342.982 91.7382 342.982 91.2036C342.982 76.7158 330.424 64.9545 314.932 64.9545C308.184 64.9545 302.022 67.1998 297.151 70.8886C293.278 53.9416 277.141 41.218 257.835 41.218C235.595 41.218 217.579 58.0581 217.579 78.8542C217.579 79.6561 217.638 80.5115 217.697 81.3134C214.997 80.5115 212.181 80.0838 209.247 80.0838C202.733 80.0838 196.689 82.1687 191.936 85.6971C192.053 84.7883 192.112 83.8795 192.112 82.9706C192.112 68.4828 179.554 56.7215 164.062 56.7215C158.428 56.7215 153.206 58.2719 148.863 60.9449C149.509 58.3254 149.802 55.5989 149.802 52.7655C149.802 31.9693 131.787 15.1293 109.547 15.1293C94.1723 15.1293 80.793 23.2018 74.0446 35.0701C71.4039 23.1484 60.0784 14.167 46.5817 14.167C31.97 14.167 19.999 24.5918 18.6493 37.9035C14.659 35.872 10.1405 34.7493 5.26995 34.7493C-10.2219 34.7493 -22.7798 46.5106 -22.7798 60.9984C-22.7798 63.5645 -22.369 66.0237 -21.6648 68.3759C-24.0121 67.574 -26.4767 66.9325 -29 66.5048L-22.7798 301C208.66 294.959 475.134 292.268 627.645 292.268C722.134 292.268 811.729 292.268 811.729 292.268V237.632L777.459 175.136Z" fill="white"/>
<path d="M706.27 175.136C705.331 175.243 704.392 175.243 703.453 175.243C687.961 175.243 675.403 163.482 675.403 148.994C675.403 134.507 687.961 122.745 703.453 122.745C705.037 122.745 706.563 122.906 708.03 123.119C705.566 118.255 704.216 112.855 704.216 107.135C704.216 86.3386 722.231 69.4986 744.471 69.4986C759.142 69.4986 771.993 76.8762 779.035 87.8355C784.14 81.4737 792.297 77.3038 801.451 77.3038C807.026 77.3038 812.248 78.8542 816.591 81.4737C816.063 79.1215 815.828 76.6623 815.828 74.1496C815.828 53.3535 833.843 36.5135 856.083 36.5135C860.954 36.5135 865.59 37.3154 869.932 38.8123C869.932 38.4381 869.873 38.0638 869.873 37.6362C869.873 16.84 887.889 0 910.129 0C932.369 0 950.384 16.84 950.384 37.6362C950.384 39.133 950.267 40.6299 950.091 42.0734C954.609 39.1865 960.067 37.4758 965.935 37.4758C981.427 37.4758 993.985 49.2371 993.985 63.7249C993.985 65.2217 993.809 66.6652 993.574 68.1086C999.97 64.1525 1007.6 61.8003 1015.87 61.8003C1037.58 61.8003 1055.31 77.8919 1056.07 98.0465C1060.06 96.8169 1064.29 96.1219 1068.74 96.1219C1077.84 96.1219 1086.29 98.9553 1093.04 103.767C1096.21 92.4866 1107.12 84.2002 1120.15 84.2002C1128.31 84.2002 1135.64 87.5148 1140.81 92.7004C1140.75 92.2193 1140.75 91.7382 1140.75 91.2036C1140.75 76.7158 1153.3 64.9545 1168.8 64.9545C1175.54 64.9545 1181.71 67.1998 1186.58 70.8886C1190.45 53.9416 1206.59 41.218 1225.89 41.218C1248.13 41.218 1266.15 58.0581 1266.15 78.8542C1266.15 79.6561 1266.09 80.5115 1266.03 81.3134C1268.73 80.5115 1271.55 80.0838 1274.48 80.0838C1281 80.0838 1287.04 82.1687 1291.79 85.6971C1291.68 84.7883 1291.62 83.8795 1291.62 82.9706C1291.62 68.4828 1304.17 56.7215 1319.67 56.7215C1325.3 56.7215 1330.52 58.2719 1334.87 60.9449C1334.22 58.3254 1333.93 55.5989 1333.93 52.7655C1333.93 31.9693 1351.94 15.1293 1374.18 15.1293C1389.56 15.1293 1402.94 23.2018 1409.68 35.0701C1412.32 23.1484 1423.65 14.167 1437.15 14.167C1451.76 14.167 1463.73 24.5918 1465.08 37.9035C1469.07 35.872 1473.59 34.7493 1478.46 34.7493C1493.95 34.7493 1506.51 46.5106 1506.51 60.9984C1506.51 63.5645 1506.1 66.0237 1505.39 68.3759C1507.74 67.574 1510.21 66.9325 1512.73 66.5048L1506.51 301C1275.07 294.959 1008.59 292.268 856.083 292.268C761.595 292.268 672 292.268 672 292.268V237.632L706.27 175.136Z" fill="white"/>
</svg>
