<svg width="215" height="74" viewBox="0 0 215 74" fill="none" xmlns="http://www.w3.org/2000/svg">
<path d="M132.829 1.38199C131.09 -0.0449534 129.034 -0.203503 126.979 0.747793C124.765 1.69909 123.817 3.60168 123.817 5.97992C123.817 21.9934 123.817 38.1654 123.817 54.1789C123.817 54.6546 123.975 55.1302 123.658 55.7644C122.71 54.496 121.919 53.2276 121.129 51.9592C117.65 46.7271 114.329 41.6535 110.851 36.4214C110.693 36.1043 110.535 35.9457 110.377 35.6286C103.103 24.6887 95.9879 13.9074 88.7145 2.96748C87.1333 0.430694 84.6034 -0.520601 82.0735 0.272145C79.5437 1.06489 78.1206 3.12603 78.1206 6.13847C78.1206 25.1644 78.1206 44.3489 78.1206 63.3748C78.1206 67.0214 78.1206 70.5095 78.1206 74.1561C78.1206 77.4857 81.2829 80.0225 84.6034 79.3883C87.6076 78.9126 89.3469 76.5344 89.3469 73.2048C89.3469 57.5085 89.3469 41.8121 89.3469 26.1157C89.3469 25.64 89.3469 25.1644 89.3469 24.6887C89.5051 24.6887 89.5051 24.6887 89.6632 24.6887C93.6161 30.5551 97.569 36.4214 101.522 42.4463C102.154 43.3976 102.629 44.1903 103.261 45.1416C109.428 54.3375 115.594 63.6919 121.603 72.8877C123.342 75.5831 125.398 77.01 128.718 77.01C132.671 76.8515 135.201 74.7903 135.201 70.8266C135.201 57.0328 135.201 43.0805 135.201 29.2867C135.201 21.5178 135.201 13.5903 135.201 5.82137C135.043 4.07733 134.252 2.49184 132.829 1.38199Z" fill="white"/>
<path d="M58.9883 9.30924C58.9883 8.51649 58.9883 7.72375 58.8302 6.931C58.3559 4.55276 56.3003 2.65017 53.9286 2.49162C50.2919 2.33307 47.762 4.71131 47.762 8.35794C47.762 21.0419 47.762 33.5673 47.762 46.2512C47.762 47.044 47.762 47.8367 47.9201 48.6295C47.9201 56.2398 45.074 62.1062 38.4331 65.9114C35.7451 67.3383 32.899 68.131 29.8947 68.7652C29.1042 68.6067 28.3136 68.2896 27.523 68.1311C17.7197 65.7528 12.0275 58.7766 12.0275 49.1051C12.0275 42.129 12.0275 34.9942 12.0275 28.0181C12.0275 21.359 12.0275 14.8585 12.0275 8.1994C12.0275 5.50406 10.7625 3.60147 8.39079 2.65017C4.75409 1.38177 0.801156 4.07711 0.801156 8.1994C0.801156 18.188 0.801156 28.0181 0.801156 38.0067C0.801156 41.1777 0.801156 44.1901 0.801156 47.3611C0.643039 53.8616 1.90798 60.045 5.22844 65.5943C9.97196 73.5217 17.4035 77.4855 26.258 79.388C27.523 79.7051 28.946 79.5466 30.0529 79.0709C31.0016 79.5466 31.9503 79.7051 33.0571 79.5466C34.322 79.2295 35.587 79.071 36.8519 78.5953C46.4971 75.7414 53.4542 70.1922 57.0909 60.5207C58.6721 56.0813 59.1465 51.4834 59.1465 46.8854C58.9883 34.36 58.9883 21.8346 58.9883 9.30924Z" fill="white"/>
<path d="M232.917 73.6806C232.601 70.8267 230.229 68.607 227.383 68.607C219.952 68.607 212.52 68.607 205.089 68.607C204.614 68.607 204.14 68.7656 203.508 68.4485C205.089 66.7044 206.67 64.9604 208.251 63.3749C212.362 59.0941 216.315 54.6547 220.426 50.3739C222.007 48.7884 223.272 47.0443 224.537 45.3003C228.49 39.751 231.494 33.7262 231.969 26.75C232.601 18.1883 229.281 11.3707 222.324 6.61424C216.631 2.6505 210.307 2.49196 203.824 4.07745C193.546 6.61424 186.273 15.493 185.799 25.3231C185.64 28.8111 187.854 31.3479 191.174 31.5065C194.179 31.665 196.709 29.2868 197.025 25.9573C197.183 24.8474 197.341 23.7376 197.657 22.6277C199.555 17.3956 204.931 14.2246 211.255 14.3832C217.106 14.5417 220.584 20.0909 220.584 24.2132C220.584 26.75 220.268 29.1282 219.319 31.5065C217.58 35.7873 215.05 39.4339 212.046 42.922C211.888 43.0806 211.73 43.0806 211.572 43.2391C203.033 52.435 194.495 61.4723 185.957 70.6682C184.217 72.5708 183.743 74.6319 184.85 77.0101C185.799 79.2298 187.696 80.3397 190.226 80.3397C202.401 80.3397 214.576 80.3397 226.751 80.3397C227.383 80.3397 228.174 80.3397 228.806 80.0226C231.494 78.9127 233.234 76.3759 232.917 73.6806Z" fill="white"/>
<path d="M166.35 5.9801C166.35 2.49201 163.978 0.11377 160.658 0.11377C157.495 0.11377 155.124 2.49201 155.124 5.9801C155.124 14.0661 155.124 22.1521 155.124 30.0796C155.124 33.4091 155.124 36.7387 155.124 40.2268C155.124 40.861 155.124 41.3366 155.124 41.9708C155.124 51.4838 155.124 60.8382 155.124 70.3511C155.124 71.6195 155.124 73.0465 155.124 74.3149C155.282 77.1687 157.495 79.3884 160.341 79.547C163.029 79.7055 165.559 77.8029 166.192 75.1076C166.508 74.632 166.35 74.1563 166.35 73.6807C166.35 51.1667 166.35 28.6527 166.35 5.9801Z" fill="white"/>
</svg>
