<svg width="194" height="195" viewBox="0 0 194 195" fill="none" xmlns="http://www.w3.org/2000/svg">
<mask id="mask0_314_283" style="mask-type:alpha" maskUnits="userSpaceOnUse" x="0" y="0" width="194" height="195">
<path d="M158.838 73.0854C164.332 90.0452 165.309 108.957 161.402 127.747C161.158 128.967 160.792 130.187 160.548 131.407C177.152 121.768 189.117 108.225 193.878 92.7294C193.146 76.1357 188.262 60.6401 180.204 47.2188C175.687 57.1018 168.239 66.0087 158.838 73.0854Z" fill="white"/>
<path d="M103.654 33.1875C104.875 33.1875 106.096 33.1875 107.317 33.0654C105.729 26.9648 103.776 21.3522 101.578 16.5938C94.3752 19.5221 87.4161 23.6705 80.7012 28.673C87.0498 31.4793 94.9856 33.1875 103.654 33.1875Z" fill="white"/>
<path d="M140.036 13.7874C140.036 12.8113 139.914 11.9572 139.67 10.9811C129.171 9.76101 118.427 10.8591 107.927 14.2755C115.13 17.8138 121.967 22.4503 128.316 27.8189C135.519 24.2805 140.036 19.278 140.036 13.7874Z" fill="white"/>
<path d="M155.053 138.484C142.112 144.707 126.973 148.733 110.735 150.076C106.706 169.11 101.09 184.727 94.2529 194C95.2296 194 96.0843 194.122 97.061 194.122C103.898 194.122 110.613 193.39 117.084 192.048C135.519 178.626 148.461 159.471 155.053 138.484Z" fill="white"/>
<path d="M111.834 36.3598C115.13 50.5133 116.84 67.595 116.962 86.507C131.246 84.3107 144.188 79.0642 154.687 71.6214C152.123 64.4227 148.705 57.59 144.31 51.1233C139.426 43.9246 133.81 37.5799 127.828 32.0894C123.188 34.1636 117.694 35.6277 111.834 36.3598Z" fill="white"/>
<path d="M98.5261 14.1533C88.8811 10.493 78.7477 8.54077 68.4922 8.54077C67.6375 10.2489 67.1492 11.9571 67.1492 13.7873C67.1492 18.7898 70.9339 23.4263 77.0384 26.9647C83.8754 21.7181 90.9566 17.3257 98.5261 14.1533Z" fill="white"/>
<path d="M155.786 75.2817C144.798 82.8465 131.49 88.0931 116.84 90.2893C116.84 91.3874 116.84 92.4855 116.84 93.7056C116.473 112.252 114.52 130.309 111.468 146.293C128.194 144.829 143.577 140.436 156.519 133.726C161.647 114.448 161.647 93.9497 155.786 75.2817Z" fill="white"/>
<path d="M113.299 86.9951C113.299 67.8391 111.468 50.7573 108.293 36.6038C106.828 36.7259 105.241 36.7259 103.776 36.7259C93.7646 36.7259 84.7299 34.6516 77.6488 31.1133C71.178 36.3598 65.0736 42.5825 59.4575 49.7812C54.8181 55.7598 50.7891 62.3485 47.3706 69.1812C61.7772 80.5284 81.1894 87.4831 102.555 87.4831C106.096 87.6051 109.758 87.4831 113.299 86.9951Z" fill="white"/>
<path d="M106.95 150.197C104.631 150.319 102.311 150.441 99.9912 150.441C98.6482 150.441 97.3052 150.441 95.9622 150.441C73.2536 149.831 51.888 143.853 34.4292 133.481C35.0396 148.855 38.0919 163.985 43.5859 178.016C57.7483 187.411 74.5966 193.146 92.5437 194L90.7124 192.658C97.4273 183.751 103.043 168.743 106.95 150.197Z" fill="white"/>
<path d="M159.449 136.288C153.466 157.274 141.624 176.064 125.874 189.729C163.722 178.016 191.558 143.853 194 102.734C187.163 116.278 175.076 127.869 159.449 136.288Z" fill="white"/>
<path d="M113.177 90.7776C109.636 91.1437 106.096 91.3877 102.433 91.3877C80.579 91.3877 60.5564 84.311 45.6615 72.8418C37.8477 90.1676 34.1851 109.69 34.3072 129.09C51.5218 139.827 73.1316 146.049 96.0844 146.781C99.9912 146.903 103.898 146.781 107.683 146.537C110.857 130.554 112.811 112.374 113.177 93.5839C113.177 92.6078 113.177 91.6317 113.177 90.7776Z" fill="white"/>
<path d="M124.653 29.5269C118.793 24.6464 112.322 20.498 105.729 17.3257C107.683 21.9622 109.392 27.2087 110.857 32.8213C115.985 32.2112 120.624 31.1131 124.653 29.5269Z" fill="white"/>
<path d="M106.95 10.8591C115.741 8.05283 124.531 6.71069 133.077 6.95472C121.967 2.44025 109.758 0 97.0611 0C96.3286 0 95.7181 0 94.9856 0C98.0378 3.17233 100.846 7.19874 103.288 12.0792C104.509 11.7132 105.729 11.2252 106.95 10.8591Z" fill="white"/>
<path d="M98.0379 10.0051C95.5961 5.97873 92.9101 2.68439 89.8579 0.244141C84.3639 0.610178 78.8699 1.46427 73.62 2.8064C72.7654 3.53848 71.9108 4.14854 71.1782 4.88062C80.457 5.24666 89.3695 6.95483 98.0379 10.0051Z" fill="white"/>
<path d="M66.5386 4.88062C66.4165 4.88062 66.4165 4.88062 66.2944 5.00263C66.4165 5.00263 66.5386 5.00263 66.5386 4.88062C66.5386 5.00263 66.5386 4.88062 66.5386 4.88062Z" fill="white"/>
<path d="M131.246 30.5031C137.106 35.9937 142.478 42.2163 147.24 49.171C151.513 55.3937 154.931 62.2264 157.495 69.4251C166.53 62.3484 173.611 53.4415 177.884 43.4365C169.216 30.2591 157.373 19.4 143.455 11.8352C143.577 12.4453 143.577 13.0553 143.577 13.7874C143.699 20.3761 138.938 26.2327 131.246 30.5031Z" fill="white"/>
<path d="M44.4405 66.9848C47.859 60.0301 51.8879 53.5634 56.5273 47.5848C61.8993 40.6301 67.8817 34.5295 74.1082 29.2829C67.5154 25.1345 63.4864 19.6439 63.4864 13.6653C63.4864 11.9571 63.8527 10.2489 64.4632 8.54077C61.0447 8.7848 57.6261 9.15083 54.2076 9.7609C42.4871 15.4955 32.2316 23.5483 23.6853 33.3093C26.6154 46.3647 33.9408 57.9559 44.4405 66.9848Z" fill="white"/>
<path d="M27.1037 123.965C28.3246 124.941 29.6676 125.795 30.8885 126.771C31.0106 106.761 35.1616 87.3609 42.8532 70.5232C32.1094 61.3722 24.2957 49.9031 20.8771 36.9697C10.2554 50.3911 3.0521 66.7408 0.854492 84.6766C3.54046 99.1961 12.5751 112.984 27.1037 123.965Z" fill="white"/>
<path d="M30.8886 131.164C28.8131 129.822 26.7376 128.357 24.7841 126.893C12.9415 117.864 4.51731 107.005 0 95.292C0 95.9021 0 96.3901 0 97.0002C0 128.601 15.1391 156.786 38.5802 174.478C34.3071 162.033 31.7432 148.734 31.0107 134.824C31.0107 133.604 31.0107 132.384 30.8886 131.164Z" fill="white"/>
<path d="M144.31 51.2452C148.705 57.5898 152.123 64.5445 154.687 71.7433C144.187 79.1861 131.246 84.4326 116.962 86.6288C116.962 67.5949 115.13 50.6351 111.834 36.4817C117.694 35.7496 123.188 34.2854 127.827 32.3332C133.81 37.7018 139.426 44.0464 144.31 51.2452ZM139.67 10.981C139.914 11.9571 140.036 12.8112 140.036 13.7873C140.036 19.2779 135.519 24.2804 128.316 27.9408C121.967 22.4502 115.13 17.9357 107.927 14.3974C118.427 10.859 129.17 9.7609 139.67 10.981ZM124.653 29.5269C120.624 31.1131 115.863 32.2112 110.857 32.8213C109.392 27.0867 107.683 21.9622 105.729 17.3257C112.444 20.498 118.793 24.6464 124.653 29.5269ZM107.316 33.0653C106.096 33.1873 104.875 33.1873 103.654 33.1873C95.1075 33.1873 87.0496 31.4791 80.701 28.7949C87.4159 23.7923 94.375 19.6439 101.578 16.7156C103.776 21.4741 105.729 26.9647 107.316 33.0653ZM67.149 13.7873C67.149 11.9571 67.6374 10.2489 68.492 8.54077C78.6254 8.54077 88.7589 10.371 98.4039 14.0313C90.9565 17.3257 83.7532 21.5961 77.0383 26.8427C70.9338 23.4263 67.149 18.7898 67.149 13.7873ZM59.3353 49.903C64.9514 42.7043 71.0559 36.4817 77.5266 31.2351C84.6078 34.6515 93.6424 36.8477 103.654 36.8477C105.241 36.8477 106.706 36.8477 108.171 36.7257C111.467 50.7571 113.177 67.8389 113.177 87.1169C109.636 87.4829 106.096 87.7269 102.433 87.7269C81.0672 87.7269 61.655 80.7722 47.2485 69.425C50.667 62.4703 54.6959 56.0037 59.3353 49.903ZM107.683 146.537C103.898 146.781 99.9911 146.781 96.0842 146.781C73.1314 146.171 51.5216 139.948 34.307 129.089C34.0628 109.689 37.8476 90.1672 45.6613 72.8414C60.6783 84.3106 80.5789 91.2653 102.433 91.2653C106.096 91.2653 109.636 91.0213 113.177 90.6552C113.177 91.6313 113.177 92.6074 113.177 93.4615C112.81 112.373 110.857 130.553 107.683 146.537ZM111.467 146.293C114.52 130.309 116.473 112.251 116.839 93.7056C116.839 92.6074 116.839 91.3873 116.839 90.2892C131.49 88.215 144.798 82.8464 155.786 75.2817C161.646 93.9496 161.646 114.448 156.396 133.604C143.577 140.436 128.194 144.829 111.467 146.293Z" fill="white"/>
</mask>
<g mask="url(#mask0_314_283)">
<rect x="-146.5" y="-59.5" width="314" height="220" rx="7.5" fill="white" stroke="url(#paint0_linear_314_283)"/>
</g>
<defs>
<linearGradient id="paint0_linear_314_283" x1="-147" y1="-60" x2="171.279" y2="156.172" gradientUnits="userSpaceOnUse">
<stop stop-color="white"/>
<stop offset="1" stop-color="white" stop-opacity="0"/>
</linearGradient>
</defs>
</svg>
