<svg width="1440" height="4528" viewBox="0 0 1440 4528" fill="none" xmlns="http://www.w3.org/2000/svg">
<path d="M1447.17 188.858V251.299C1433.96 274.16 1335.51 360.206 987.739 353.15C432.814 341.89 241.834 367.992 -5 455V303.504C136.734 285.249 528.665 259.181 962.516 300.945C1317.6 335.127 1428.98 190.616 1447.17 72.4804V0C1450.66 21.3705 1451.21 46.2766 1447.17 72.4804V188.858Z" fill="#D8D8D8"/>
<path d="M927.119 1035.5C150.281 1059.9 -25.3184 915.333 -16.0134 840L-167.553 903.5C-198.126 984.833 -85.0035 1134.8 612.077 1084C1309.16 1033.2 1463.49 1079.5 1453.52 1109H1858.29C1871.58 1074.33 1703.96 1011.1 927.119 1035.5Z" fill="#D8D8D8"/>
<path d="M231.109 2188.82C750.373 2031.16 1639.43 1982.93 1779.43 2219.09L2059.98 2130.05C1925.21 1919.12 1886.36 1591.45 1397.27 1861.34C879.322 2147.15 34.0477 2076.06 -35.4555 2040.85L-129.88 2309.43C-110.029 2420.92 -59.4765 2277.05 231.109 2188.82Z" fill="#D8D8D8"/>
<path d="M791.197 2845.78C143.206 2812.65 -118.264 2694.38 -168 2639.39L-40.107 2612C20.2868 2655.86 234.01 2745.32 605.752 2752.27C977.494 2759.21 1330.48 2794.34 1460.5 2811.04L1582 3141C1481.82 3015.43 1601.18 2887.19 791.197 2845.78Z" fill="#D8D8D8"/>
<path d="M628.444 3609.99C1104.54 3584.52 1390.86 3460.38 1474.51 3401.5C1521.55 3504.45 1462.25 3697.45 848.727 3645.9C235.202 3594.34 11.4019 3765.01 -23.8073 3856.79L-184.854 3975.23C-177.811 3736.68 33.3295 3641.83 628.444 3609.99Z" fill="#D8D8D8"/>
<path d="M1082.13 4353.31C523.653 4418.36 76.1324 4304.21 -77.8181 4239L-114 4288.11C10.8631 4389.81 355.514 4563.26 735.211 4443.47C1114.91 4323.69 1364.49 4393.56 1441.82 4443.47L1793 4528C1641.89 4443.47 1780.23 4272.01 1082.13 4353.31Z" fill="#D8D8D8"/>
</svg>
