<?xml version="1.0" encoding="utf-8"?>
<!-- Generator: Adobe Illustrator 24.0.2, SVG Export Plug-In . SVG Version: 6.00 Build 0)  -->
<svg version="1.1" id="Layer_1" xmlns="http://www.w3.org/2000/svg" xmlns:xlink="http://www.w3.org/1999/xlink" x="0px" y="0px"
	 viewBox="0 0 128 128" style="enable-background:new 0 0 128 128;" xml:space="preserve">
<path d="M27.4,14.7C27.4,14.7,27.4,14.7,27.4,14.7c3.4,0,6.6,1.3,9,3.7c2.4,2.4,3.7,5.6,3.7,8.9c0,1.7-0.3,3.3-1,4.8
	c-0.6,1.5-1.6,2.9-2.7,4.1c-2.4,2.4-5.6,3.7-8.9,3.7c0,0,0,0,0,0c-3.4,0-6.6-1.3-9-3.7c-1.2-1.2-2.1-2.6-2.7-4.1
	c-0.6-1.5-1-3.2-1-4.8c0-3.3,1.3-6.5,3.7-8.9C20.8,16,24,14.7,27.4,14.7 M89.2,48.2c19.5,0,24.1,10.4,24.1,29.6v35.5H93.6V82.2
	c0-10.9-2.6-17.1-9.4-17.1c-9.3,0-13.2,6.6-13.2,17.1v31.1H51.3V49.1h18.3v9.1C72.3,52.9,79,48.2,89.2,48.2 M37.2,48.2v64.3H17.5
	V48.2H37.2 M27.4,4.7L27.4,4.7c-6,0-11.7,2.3-16,6.6c-4.3,4.3-6.7,9.9-6.7,16c0,3,0.6,5.9,1.7,8.7c0.9,2.1,2,4,3.5,5.8
	c-1.5,1.8-2.4,4-2.4,6.5v64.3c0,5.5,4.5,10,10,10h19.7c2.5,0,4.9-0.9,6.6-2.5c1.8,2.1,4.5,3.4,7.5,3.4H71c5.5,0,10-4.5,10-10V82.2
	c0-4.7,1-6.3,1.2-6.6c0.1-0.2,0.3-0.3,0.7-0.3c0.3,1.1,0.7,3.3,0.7,7v31.1c0,5.5,4.5,10,10,10h19.7c5.5,0,10-4.5,10-10V77.8
	c0-8.7-0.8-19.6-6.6-27.8C111,42.1,102,38.2,89.2,38.2c-5,0-9.7,0.9-13.9,2.6c-1.6-1.1-3.6-1.8-5.7-1.8H51.3c-2.2,0-4.3,0.7-6,2
	c1.2-1.6,2.2-3.3,3-5.1c1.2-2.8,1.7-5.7,1.7-8.7c0-6-2.4-11.7-6.7-16C39.1,7,33.4,4.7,27.4,4.7L27.4,4.7z"/>
</svg>
